<?xml version="1.0" encoding="utf-8"?>
<!-- Generator: Adobe Illustrator 15.0.0, SVG Export Plug-In . SVG Version: 6.00 Build 0)  -->
<!DOCTYPE svg PUBLIC "-//W3C//DTD SVG 1.1//EN" "http://www.w3.org/Graphics/SVG/1.1/DTD/svg11.dtd">
<svg version="1.1" id="Layer_1" xmlns="http://www.w3.org/2000/svg" xmlns:xlink="http://www.w3.org/1999/xlink" x="0px" y="0px"
	 width="400px" height="70px" viewBox="0 0 400 70" enable-background="new 0 0 400 70" xml:space="preserve">
<g enable-background="new    ">
	<path d="M3.272,19.964c0.788-2.476,1.971-4.666,3.547-6.572c1.576-1.907,3.538-3.429,5.885-4.565
		c2.346-1.136,5.078-1.705,8.195-1.705c3.116,0,5.848,0.569,8.195,1.705c2.346,1.137,4.308,2.659,5.885,4.565
		c1.576,1.906,2.759,4.097,3.547,6.572c0.788,2.475,1.183,5.051,1.183,7.728s-0.395,5.252-1.183,7.728
		c-0.789,2.475-1.971,4.666-3.547,6.572c-1.577,1.907-3.539,3.419-5.885,4.537c-2.347,1.118-5.079,1.678-8.195,1.678
		c-3.117,0-5.849-0.56-8.195-1.678c-2.347-1.118-4.309-2.63-5.885-4.537c-1.577-1.906-2.759-4.098-3.547-6.572
		c-0.789-2.476-1.183-5.051-1.183-7.728S2.483,22.438,3.272,19.964z M8.085,33.549c0.513,1.925,1.32,3.657,2.42,5.197
		s2.511,2.777,4.235,3.713c1.723,0.935,3.776,1.402,6.16,1.402c2.383,0,4.436-0.468,6.16-1.402c1.723-0.936,3.135-2.173,4.235-3.713
		s1.906-3.272,2.42-5.197c0.513-1.925,0.77-3.878,0.77-5.857c0-1.98-0.257-3.933-0.77-5.857c-0.514-1.926-1.32-3.658-2.42-5.198
		s-2.512-2.777-4.235-3.712c-1.724-0.935-3.777-1.403-6.16-1.403c-2.384,0-4.437,0.468-6.16,1.403
		c-1.724,0.935-3.135,2.172-4.235,3.712s-1.907,3.272-2.42,5.198c-0.514,1.925-0.77,3.877-0.77,5.857
		C7.315,29.671,7.571,31.624,8.085,33.549z"/>
	<path d="M62.81,47.326v-4.51H62.7c-0.99,1.76-2.255,3.053-3.795,3.877c-1.54,0.825-3.355,1.238-5.445,1.238
		c-1.87,0-3.429-0.248-4.675-0.743c-1.247-0.495-2.255-1.2-3.025-2.117c-0.77-0.916-1.311-2.008-1.623-3.272
		c-0.312-1.266-0.467-2.668-0.467-4.208V18.892h4.675v19.25c0,1.76,0.513,3.153,1.54,4.18c1.026,1.026,2.438,1.54,4.235,1.54
		c1.43,0,2.667-0.22,3.712-0.66s1.916-1.063,2.612-1.87c0.696-0.806,1.219-1.75,1.567-2.832c0.348-1.081,0.522-2.264,0.522-3.548
		v-16.06h4.675v28.435H62.81z"/>
	<path d="M84.754,18.892v4.125h-5.665v17.654c0,0.55,0.046,0.99,0.138,1.32c0.091,0.33,0.266,0.587,0.522,0.77
		c0.256,0.185,0.614,0.303,1.073,0.358c0.458,0.055,1.053,0.082,1.787,0.082h2.145v4.125H81.18c-1.21,0-2.247-0.082-3.107-0.247
		c-0.862-0.165-1.559-0.468-2.09-0.908c-0.532-0.439-0.926-1.062-1.182-1.87c-0.257-0.806-0.385-1.869-0.385-3.189V23.017h-4.84
		v-4.125h4.84v-8.525h4.675v8.525H84.754z"/>
</g>
<g enable-background="new    ">
	<path d="M111.674,8.056c1.76,0,3.345,0.285,4.757,0.853c1.411,0.569,2.621,1.348,3.63,2.337c1.008,0.99,1.778,2.137,2.31,3.438
		c0.531,1.302,0.797,2.704,0.797,4.208c0,2.31-0.486,4.309-1.458,5.994c-0.972,1.688-2.557,2.971-4.757,3.851v0.109
		c1.063,0.294,1.943,0.743,2.64,1.348c0.696,0.605,1.265,1.32,1.705,2.146c0.44,0.825,0.76,1.732,0.962,2.723
		c0.201,0.989,0.338,1.979,0.413,2.97c0.036,0.624,0.073,1.356,0.11,2.2c0.036,0.844,0.101,1.705,0.192,2.585
		c0.091,0.88,0.238,1.714,0.44,2.502c0.201,0.789,0.504,1.458,0.908,2.008h-8.635c-0.477-1.246-0.77-2.731-0.88-4.455
		c-0.11-1.723-0.275-3.373-0.495-4.95c-0.294-2.053-0.917-3.556-1.87-4.51c-0.954-0.953-2.512-1.43-4.675-1.43h-8.635v15.345h-8.635
		V8.056H111.674z M108.594,25.821c1.98,0,3.465-0.44,4.455-1.32c0.99-0.88,1.485-2.31,1.485-4.29c0-1.906-0.495-3.29-1.485-4.152
		c-0.99-0.861-2.475-1.292-4.455-1.292h-9.46v11.055H108.594z"/>
	<path d="M127.128,27.636c0.11-1.833,0.568-3.354,1.375-4.564c0.806-1.21,1.833-2.182,3.08-2.915
		c1.246-0.733,2.648-1.256,4.208-1.567c1.558-0.312,3.125-0.468,4.702-0.468c1.43,0,2.878,0.102,4.345,0.303
		c1.466,0.202,2.805,0.597,4.015,1.183c1.21,0.587,2.2,1.402,2.97,2.447s1.155,2.43,1.155,4.152v14.795
		c0,1.284,0.073,2.512,0.22,3.686c0.146,1.174,0.403,2.054,0.77,2.64h-7.92c-0.147-0.44-0.267-0.889-0.357-1.348
		c-0.092-0.458-0.157-0.926-0.193-1.402c-1.247,1.284-2.714,2.182-4.4,2.695c-1.687,0.513-3.41,0.77-5.17,0.77
		c-1.357,0-2.622-0.165-3.795-0.495c-1.174-0.33-2.2-0.843-3.08-1.54c-0.88-0.695-1.567-1.576-2.062-2.64s-0.743-2.328-0.743-3.795
		c0-1.613,0.284-2.942,0.853-3.987c0.568-1.045,1.301-1.879,2.2-2.503c0.898-0.623,1.925-1.091,3.08-1.402
		c1.155-0.312,2.318-0.559,3.492-0.742c1.173-0.184,2.328-0.33,3.465-0.44c1.136-0.11,2.145-0.275,3.025-0.495
		s1.576-0.54,2.09-0.962c0.513-0.422,0.751-1.036,0.715-1.843c0-0.843-0.138-1.513-0.413-2.008s-0.642-0.88-1.1-1.155
		c-0.459-0.274-0.99-0.458-1.595-0.55c-0.605-0.091-1.256-0.138-1.952-0.138c-1.54,0-2.75,0.33-3.63,0.99
		c-0.88,0.66-1.394,1.76-1.54,3.3H127.128z M145.168,33.411c-0.33,0.294-0.743,0.522-1.238,0.688s-1.027,0.303-1.595,0.412
		c-0.569,0.11-1.165,0.202-1.788,0.275c-0.624,0.074-1.247,0.165-1.87,0.275c-0.587,0.109-1.165,0.257-1.732,0.439
		c-0.569,0.185-1.064,0.432-1.485,0.743c-0.422,0.312-0.762,0.706-1.018,1.182c-0.257,0.478-0.385,1.082-0.385,1.815
		c0,0.697,0.128,1.284,0.385,1.76c0.256,0.478,0.605,0.853,1.045,1.128c0.44,0.274,0.953,0.467,1.54,0.577
		c0.586,0.11,1.191,0.165,1.815,0.165c1.54,0,2.731-0.256,3.575-0.77c0.843-0.514,1.466-1.128,1.87-1.843
		c0.403-0.715,0.651-1.438,0.743-2.173c0.091-0.732,0.138-1.319,0.138-1.76V33.411z"/>
	<path d="M183.97,49.416c-0.312,1.466-0.981,2.833-2.007,4.098c-1.027,1.265-2.512,2.338-4.455,3.218
		c-1.944,0.88-4.547,1.319-7.81,1.319c-1.394,0-2.814-0.174-4.262-0.522c-1.449-0.349-2.769-0.889-3.96-1.622
		c-1.192-0.734-2.182-1.678-2.97-2.833c-0.789-1.154-1.238-2.539-1.348-4.152h7.755c0.366,1.467,1.082,2.483,2.145,3.053
		c1.063,0.568,2.292,0.853,3.685,0.853c2.2,0,3.804-0.66,4.812-1.98c1.008-1.319,1.494-2.988,1.458-5.005v-3.739h-0.11
		c-0.844,1.504-2.044,2.612-3.603,3.327c-1.559,0.715-3.199,1.072-4.922,1.072c-2.127,0-3.96-0.375-5.5-1.127
		c-1.54-0.751-2.805-1.778-3.795-3.08c-0.99-1.302-1.715-2.823-2.173-4.565c-0.459-1.741-0.688-3.583-0.688-5.527
		c0-1.833,0.266-3.603,0.798-5.308c0.531-1.705,1.311-3.208,2.337-4.51c1.026-1.301,2.3-2.338,3.822-3.107
		c1.521-0.771,3.272-1.155,5.252-1.155c1.87,0,3.511,0.349,4.923,1.045c1.411,0.697,2.593,1.87,3.547,3.521h0.11v-3.795h7.425
		v26.619C184.438,46.648,184.281,47.949,183.97,49.416z M173.273,39.956c0.843-0.439,1.54-1.026,2.09-1.76s0.962-1.567,1.237-2.503
		c0.275-0.935,0.413-1.915,0.413-2.942c0-1.173-0.11-2.282-0.33-3.327c-0.22-1.045-0.587-1.971-1.1-2.777
		c-0.514-0.807-1.192-1.448-2.035-1.926c-0.844-0.476-1.907-0.715-3.19-0.715c-1.1,0-2.044,0.221-2.833,0.66
		c-0.789,0.44-1.449,1.036-1.98,1.788c-0.532,0.752-0.917,1.613-1.155,2.585c-0.239,0.972-0.357,1.989-0.357,3.052
		c0,1.027,0.101,2.045,0.303,3.053c0.201,1.009,0.55,1.917,1.045,2.723c0.495,0.807,1.146,1.467,1.953,1.979
		c0.806,0.515,1.815,0.771,3.025,0.771C171.458,40.616,172.429,40.396,173.273,39.956z"/>
	<path d="M197.143,40.506c1.173,1.138,2.86,1.705,5.061,1.705c1.576,0,2.933-0.394,4.069-1.183c1.136-0.788,1.833-1.622,2.09-2.502
		h6.875c-1.1,3.41-2.786,5.849-5.06,7.314c-2.273,1.468-5.023,2.2-8.25,2.2c-2.237,0-4.254-0.357-6.05-1.072
		c-1.797-0.715-3.319-1.732-4.565-3.053c-1.247-1.32-2.209-2.896-2.888-4.729c-0.679-1.833-1.017-3.851-1.017-6.051
		c0-2.126,0.348-4.105,1.045-5.939c0.696-1.833,1.686-3.419,2.97-4.758c1.283-1.338,2.814-2.393,4.593-3.162
		c1.778-0.771,3.749-1.155,5.913-1.155c2.42,0,4.527,0.468,6.324,1.402c1.797,0.936,3.273,2.191,4.428,3.768
		c1.155,1.577,1.988,3.374,2.503,5.391c0.513,2.017,0.696,4.125,0.55,6.324h-20.515C195.328,37.536,195.969,39.37,197.143,40.506z
		 M205.971,25.546c-0.936-1.025-2.357-1.54-4.264-1.54c-1.247,0-2.282,0.212-3.107,0.633c-0.825,0.422-1.485,0.944-1.98,1.567
		c-0.495,0.624-0.844,1.284-1.045,1.98c-0.202,0.696-0.322,1.319-0.358,1.87h12.705C207.556,28.076,206.904,26.573,205.971,25.546z"
		/>
</g>
<g enable-background="new    ">
	<path d="M256.241,8.056v4.4h-20.569v12.485h18.039v4.399h-18.039v17.985h-5.226V8.056H256.241z"/>
	<path d="M284.785,47.216c-0.807,0.477-1.924,0.716-3.354,0.716c-1.21,0-2.173-0.34-2.888-1.018
		c-0.715-0.679-1.072-1.788-1.072-3.328c-1.283,1.54-2.777,2.649-4.482,3.328c-1.705,0.678-3.547,1.018-5.527,1.018
		c-1.284,0-2.503-0.147-3.658-0.44c-1.154-0.293-2.154-0.751-2.997-1.375c-0.844-0.623-1.513-1.438-2.007-2.447
		c-0.496-1.009-0.743-2.228-0.743-3.658c0-1.612,0.274-2.933,0.825-3.96c0.55-1.025,1.273-1.86,2.172-2.502s1.926-1.128,3.08-1.458
		c1.155-0.33,2.338-0.604,3.548-0.824c1.283-0.257,2.503-0.449,3.657-0.578c1.155-0.128,2.173-0.311,3.053-0.55
		c0.88-0.238,1.576-0.586,2.09-1.045c0.514-0.458,0.77-1.128,0.77-2.008c0-1.025-0.191-1.851-0.576-2.475
		c-0.386-0.623-0.881-1.101-1.486-1.43c-0.604-0.33-1.283-0.551-2.034-0.66c-0.752-0.11-1.495-0.165-2.228-0.165
		c-1.98,0-3.63,0.376-4.95,1.127c-1.319,0.752-2.034,2.173-2.146,4.263h-4.674c0.072-1.76,0.439-3.245,1.1-4.455
		s1.54-2.19,2.64-2.942c1.101-0.751,2.356-1.292,3.768-1.622s2.924-0.495,4.538-0.495c1.283,0,2.557,0.092,3.822,0.274
		c1.265,0.184,2.41,0.558,3.438,1.125c1.025,0.567,1.852,1.363,2.475,2.388s0.936,2.359,0.936,4.006v14.599
		c0,1.099,0.062,1.902,0.191,2.415c0.129,0.512,0.559,0.769,1.293,0.769c0.403,0,0.881-0.073,1.43-0.221V47.216z M277.195,32.642
		c-0.586,0.438-1.356,0.757-2.31,0.958c-0.954,0.201-1.952,0.365-2.997,0.492c-1.045,0.128-2.1,0.274-3.163,0.438
		s-2.017,0.429-2.86,0.793s-1.531,0.885-2.062,1.56c-0.531,0.676-0.797,1.597-0.797,2.764c0,0.767,0.155,1.414,0.467,1.943
		s0.715,0.958,1.211,1.286c0.494,0.329,1.072,0.565,1.732,0.712s1.355,0.219,2.09,0.219c1.54,0,2.859-0.21,3.96-0.63
		c1.101-0.419,1.998-0.948,2.694-1.587c0.697-0.639,1.211-1.332,1.541-2.08c0.33-0.747,0.494-1.45,0.494-2.106V32.642z"/>
	<path d="M299.635,18.892v4.125h-5.665v17.654c0,0.55,0.046,0.99,0.138,1.32s0.266,0.587,0.522,0.77
		c0.257,0.185,0.614,0.303,1.073,0.358c0.457,0.055,1.053,0.082,1.787,0.082h2.145v4.125h-3.574c-1.211,0-2.247-0.082-3.107-0.247
		c-0.863-0.165-1.56-0.468-2.091-0.908c-0.532-0.439-0.927-1.062-1.183-1.87c-0.257-0.806-0.385-1.869-0.385-3.189V23.017h-4.84
		v-4.125h4.84v-8.525h4.675v8.525H299.635z"/>
	<path d="M303.43,13.776v-5.72h4.675v5.72H303.43z M308.104,18.892v28.435h-4.675V18.892H308.104z"/>
	<path d="M335.053,55.356c-2.127,2.31-5.463,3.465-10.01,3.465c-1.32,0-2.667-0.147-4.042-0.44c-1.375-0.294-2.622-0.77-3.74-1.43
		s-2.044-1.521-2.777-2.585s-1.138-2.365-1.21-3.905h4.675c0.036,0.844,0.303,1.559,0.798,2.146c0.494,0.586,1.1,1.062,1.814,1.43
		c0.715,0.366,1.494,0.633,2.338,0.798c0.843,0.165,1.65,0.247,2.42,0.247c1.54,0,2.842-0.267,3.904-0.798
		c1.064-0.531,1.943-1.265,2.641-2.199c0.696-0.936,1.201-2.062,1.513-3.383s0.468-2.768,0.468-4.345v-1.87h-0.11
		c-0.808,1.76-2.026,3.053-3.657,3.877c-1.633,0.825-3.365,1.238-5.197,1.238c-2.127,0-3.979-0.386-5.556-1.155
		c-1.577-0.771-2.897-1.806-3.96-3.107c-1.064-1.302-1.861-2.823-2.393-4.565c-0.531-1.741-0.797-3.583-0.797-5.527
		c0-1.686,0.22-3.419,0.66-5.197c0.439-1.778,1.172-3.392,2.199-4.84c1.026-1.448,2.383-2.641,4.07-3.575
		c1.686-0.936,3.758-1.402,6.215-1.402c1.796,0,3.446,0.395,4.95,1.183c1.503,0.788,2.676,1.971,3.521,3.547h0.055v-4.069h4.399
		v26.015C338.243,49.562,337.18,53.046,335.053,55.356z M329.086,42.568c1.081-0.641,1.953-1.484,2.612-2.529
		c0.66-1.045,1.146-2.228,1.458-3.548c0.311-1.32,0.467-2.64,0.467-3.96c0-1.246-0.146-2.475-0.439-3.686
		c-0.294-1.21-0.762-2.3-1.402-3.272c-0.643-0.971-1.477-1.75-2.503-2.337c-1.026-0.586-2.274-0.88-3.739-0.88
		c-1.504,0-2.787,0.284-3.851,0.853s-1.935,1.329-2.612,2.282c-0.68,0.954-1.174,2.054-1.485,3.3
		c-0.312,1.247-0.468,2.549-0.468,3.905c0,1.284,0.129,2.566,0.385,3.85c0.257,1.284,0.697,2.448,1.32,3.493
		s1.448,1.889,2.475,2.529c1.027,0.643,2.311,0.963,3.851,0.963S328.004,43.211,329.086,42.568z"/>
	<path d="M362.773,47.326v-4.51h-0.111c-0.989,1.76-2.254,3.053-3.795,3.877c-1.539,0.825-3.354,1.238-5.444,1.238
		c-1.87,0-3.429-0.248-4.675-0.743c-1.247-0.495-2.256-1.2-3.025-2.117c-0.77-0.916-1.311-2.008-1.623-3.272
		c-0.311-1.266-0.467-2.668-0.467-4.208V18.892h4.675v19.25c0,1.76,0.513,3.153,1.54,4.18c1.026,1.026,2.438,1.54,4.235,1.54
		c1.43,0,2.667-0.22,3.712-0.66s1.916-1.063,2.613-1.87c0.695-0.806,1.219-1.75,1.566-2.832c0.349-1.081,0.523-2.264,0.523-3.548
		v-16.06h4.675v28.435H362.773z"/>
	<path d="M392.693,45.511c-2.127,1.614-4.805,2.421-8.03,2.421c-2.274,0-4.245-0.367-5.913-1.101s-3.07-1.76-4.207-3.08
		c-1.137-1.319-1.989-2.896-2.558-4.729c-0.569-1.833-0.89-3.831-0.962-5.995c0-2.163,0.33-4.144,0.99-5.94
		c0.659-1.796,1.585-3.354,2.777-4.675c1.19-1.32,2.603-2.346,4.234-3.08c1.631-0.733,3.418-1.1,5.363-1.1
		c2.529,0,4.628,0.522,6.297,1.567c1.668,1.045,3.006,2.374,4.016,3.987c1.008,1.614,1.704,3.374,2.09,5.28
		c0.385,1.906,0.54,3.722,0.467,5.444h-21.285c-0.037,1.247,0.11,2.43,0.44,3.548c0.33,1.119,0.86,2.109,1.595,2.97
		c0.733,0.862,1.668,1.55,2.805,2.062c1.137,0.515,2.476,0.771,4.016,0.771c1.98,0,3.603-0.458,4.867-1.375
		c1.266-0.916,2.099-2.311,2.502-4.18h4.621C396.193,41.496,394.818,43.898,392.693,45.511z M391.565,27.251
		c-0.422-0.99-0.989-1.843-1.705-2.558c-0.715-0.715-1.559-1.283-2.53-1.705c-0.972-0.421-2.044-0.632-3.217-0.632
		c-1.211,0-2.302,0.211-3.273,0.632c-0.971,0.422-1.806,1-2.502,1.732c-0.697,0.734-1.247,1.587-1.65,2.558
		c-0.403,0.973-0.642,2.008-0.715,3.107h16.336C392.234,29.286,391.986,28.241,391.565,27.251z"/>
</g>
</svg>
